<?xml version="1.0" standalone="no"?>
<!DOCTYPE svg PUBLIC "-//W3C//DTD SVG 20010904//EN"
 "http://www.w3.org/TR/2001/REC-SVG-20010904/DTD/svg10.dtd">
<svg version="1.0" xmlns="http://www.w3.org/2000/svg"
 width="700.000000pt" height="700.000000pt" viewBox="0 0 700.000000 700.000000"
 preserveAspectRatio="xMidYMid meet">
<metadata>
Created by potrace 1.14, written by Peter Selinger 2001-2017
</metadata>
<g transform="translate(0.000000,700.000000) scale(0.100000,-0.100000)"
fill="#000000" stroke="none">
<path d="M3185 6989 c-1393 -129 -2583 -1078 -3015 -2404 -255 -785 -223
-1653 90 -2414 389 -947 1184 -1685 2155 -2001 519 -169 1089 -214 1630 -129
1454 228 2618 1354 2894 2799 54 287 75 650 52 935 -126 1573 -1280 2862
-2831 3164 -210 41 -330 52 -605 56 -148 2 -315 -1 -370 -6z m-1914 -2429 c46
-25 49 -47 49 -412 0 -198 -5 -362 -11 -388 -36 -158 -168 -281 -333 -311
-207 -38 -412 102 -457 313 -50 231 116 463 345 485 104 9 156 -26 156 -108 0
-46 -56 -99 -104 -99 -75 0 -145 -45 -177 -115 -55 -118 25 -256 156 -271 42
-5 58 -1 105 23 44 23 59 39 82 82 l28 53 0 350 0 350 29 29 c23 23 38 29 71
29 23 0 50 -5 61 -10z m620 -320 c166 -31 289 -160 319 -332 23 -130 -24 -262
-126 -357 -75 -70 -147 -101 -251 -109 -206 -14 -387 131 -423 340 -35 200
103 405 305 454 64 16 109 17 176 4z m900 0 c208 -39 353 -247 319 -455 -40
-244 -283 -398 -517 -327 -288 88 -384 441 -179 660 97 104 235 149 377 122z
m1076 -14 l28 -24 5 -229 c3 -155 9 -235 17 -250 24 -42 63 -63 114 -63 42 0
55 5 87 34 l37 34 5 229 c3 125 9 236 14 246 19 40 98 59 149 36 43 -19 47
-46 47 -292 0 -128 4 -237 8 -243 30 -43 108 -57 162 -29 58 30 64 57 70 303
l5 224 28 24 c41 35 97 33 139 -5 l33 -29 0 -239 c0 -224 -2 -241 -23 -295
-77 -192 -333 -270 -502 -154 l-35 23 -35 -23 c-87 -58 -214 -71 -314 -33 -73
27 -148 96 -183 167 l-28 57 0 253 0 254 28 24 c39 33 105 33 144 0z m1222
-11 l26 -25 5 -228 c6 -258 9 -268 85 -298 66 -25 127 2 164 73 7 14 11 94 11
227 0 132 4 214 11 230 7 14 27 32 46 41 48 23 95 13 128 -27 l27 -31 -4 -241
c-3 -223 -5 -245 -25 -288 -49 -106 -160 -187 -280 -203 -108 -14 -250 49
-311 137 -56 82 -62 116 -62 363 0 146 4 233 11 249 27 58 120 70 168 21z
m1172 -2 c82 -41 152 -110 192 -193 30 -61 32 -71 32 -175 0 -100 -2 -115 -28
-167 -42 -86 -107 -152 -190 -193 -169 -83 -304 -44 -284 82 9 53 34 73 105
83 120 17 187 87 187 196 0 53 -4 69 -30 105 -80 113 -240 113 -320 0 l-30
-43 -5 -370 -5 -370 -28 -24 c-33 -28 -100 -33 -133 -9 -43 30 -45 53 -42 436
3 353 4 366 26 422 46 113 132 196 248 237 47 16 77 20 150 17 78 -2 100 -7
155 -34z m-2792 -292 c29 -16 51 -63 51 -112 0 -35 -6 -48 -39 -80 -33 -33
-45 -39 -82 -39 -119 0 -178 125 -101 211 42 47 106 54 171 20z m-1554 -1085
c42 -18 79 -81 55 -96 -10 -6 -17 -1 -26 19 -14 34 -62 55 -103 46 -42 -9 -71
-54 -78 -119 -10 -99 32 -166 106 -166 52 0 81 23 81 66 0 33 -1 34 -40 34
-33 0 -40 3 -40 20 0 18 7 20 60 20 l61 0 -3 -67 c-3 -64 -5 -68 -37 -90 -42
-28 -110 -31 -153 -5 -44 25 -70 84 -71 157 -1 103 32 165 99 185 42 12 51 12
89 -4z m958 -14 c18 -16 47 -64 47 -77 0 -3 -9 -5 -20 -5 -11 0 -20 5 -20 10
0 21 -49 60 -74 60 -14 0 -40 -13 -58 -29 -30 -27 -33 -34 -36 -102 -2 -57 1
-82 15 -109 37 -72 115 -74 148 -4 16 35 45 46 45 19 0 -25 -28 -72 -52 -89
-36 -25 -101 -20 -137 10 -32 26 -61 102 -61 156 0 83 50 170 103 181 35 8 79
-2 100 -21z m1192 14 c43 -18 79 -81 55 -96 -11 -7 -19 -2 -29 20 -29 59 -113
63 -154 8 -25 -33 -34 -122 -17 -172 15 -47 53 -76 99 -76 52 0 81 23 81 66 0
33 -1 34 -40 34 -33 0 -40 3 -40 20 0 18 7 20 60 20 l61 0 -3 -67 c-3 -64 -5
-68 -37 -90 -61 -41 -157 -26 -195 31 -28 43 -39 119 -26 180 13 63 40 103 84
122 40 17 59 17 101 0z m-2451 -170 c31 -96 56 -177 56 -180 0 -3 -8 -6 -19
-6 -13 0 -22 13 -32 53 l-14 52 -65 0 -65 0 -15 -52 c-11 -38 -20 -53 -32 -53
-10 0 -18 2 -18 4 0 4 97 322 105 344 2 6 13 12 24 12 16 0 28 -28 75 -174z
m666 154 c0 -18 -7 -20 -85 -20 l-85 0 0 -55 0 -55 80 0 c73 0 80 -2 80 -20 0
-18 -7 -20 -80 -20 l-80 0 0 -65 0 -65 90 0 c83 0 90 -1 90 -20 0 -19 -7 -20
-110 -20 l-110 0 0 180 0 180 105 0 c98 0 105 -1 105 -20z m200 -123 l75 -142
3 143 c2 117 5 142 17 142 13 0 15 -28 15 -180 0 -233 -6 -235 -110 -39 l-75
141 -3 -141 c-2 -116 -5 -141 -17 -141 -13 0 -15 28 -15 180 0 234 6 236 110
37z m730 123 c0 -19 -7 -20 -90 -20 l-90 0 0 -55 0 -55 80 0 c73 0 80 -2 80
-20 0 -17 -8 -19 -77 -22 l-78 -3 0 -60 0 -60 88 -3 c79 -3 87 -5 87 -22 0
-19 -7 -20 -105 -20 l-105 0 0 180 0 180 105 0 c98 0 105 -1 105 -20z m383 9
c44 -20 69 -81 69 -165 -1 -134 -47 -184 -169 -184 l-63 0 0 180 0 180 70 0
c38 0 80 -5 93 -11z m197 -169 c0 -173 -1 -180 -20 -180 -19 0 -20 7 -20 180
0 173 1 180 20 180 19 0 20 -7 20 -180z m470 0 c0 -153 -2 -180 -15 -180 -13
0 -15 27 -15 180 0 153 2 180 15 180 13 0 15 -27 15 -180z m300 160 c0 -17 -7
-20 -45 -20 l-45 0 0 -160 c0 -153 -1 -160 -20 -160 -19 0 -20 7 -20 160 l0
160 -45 0 c-38 0 -45 3 -45 20 0 19 7 20 110 20 103 0 110 -1 110 -20z m213
-153 c31 -96 57 -177 57 -180 0 -4 -8 -7 -19 -7 -13 0 -22 13 -32 53 l-14 52
-66 3 -66 3 -13 -56 c-10 -42 -18 -55 -32 -55 -10 0 -18 2 -18 4 0 4 97 322
105 344 2 6 13 12 23 12 15 0 29 -32 75 -173z m157 13 l0 -160 70 0 c63 0 70
-2 70 -20 0 -19 -7 -20 -90 -20 l-90 0 0 180 c0 173 1 180 20 180 19 0 20 -7
20 -160z m420 140 c0 -18 -7 -20 -85 -20 l-85 0 0 -55 0 -55 80 0 c73 0 80 -2
80 -20 0 -18 -7 -20 -80 -20 l-80 0 0 -65 0 -65 90 0 c83 0 90 -1 90 -20 0
-19 -7 -20 -110 -20 l-110 0 0 180 0 180 105 0 c98 0 105 -1 105 -20z"/>
<path d="M1757 4030 c-123 -37 -178 -201 -100 -298 91 -113 243 -108 317 11
52 84 37 179 -38 245 -52 46 -117 61 -179 42z"/>
<path d="M2647 4025 c-84 -29 -132 -105 -125 -197 10 -138 157 -220 278 -156
88 48 130 170 87 254 -32 63 -116 115 -182 114 -11 -1 -37 -7 -58 -15z"/>
<path d="M1516 2728 c-10 -40 -21 -79 -23 -85 -4 -10 9 -13 47 -13 40 0 51 3
47 14 -3 7 -15 46 -27 85 -11 39 -22 71 -23 71 -2 0 -11 -33 -21 -72z"/>
<path d="M3462 2663 l3 -138 29 -3 c51 -6 93 7 111 35 22 34 31 130 15 177
-16 49 -44 66 -108 66 l-53 0 3 -137z"/>
<path d="M4672 2718 c-12 -45 -21 -83 -18 -85 2 -2 24 -3 49 -1 l44 3 -23 79
c-13 44 -25 80 -26 82 -2 1 -13 -34 -26 -78z"/>
</g>
</svg>
